<svg data-v-0dd9719b="" version="1.0" xmlns="http://www.w3.org/2000/svg" xmlns:xlink="http://www.w3.org/1999/xlink" width="100%" height="100%" viewBox="0 0 340.000000 250.000000" preserveAspectRatio="xMidYMid meet" color-interpolation-filters="sRGB" style="margin: auto;"> <rect data-v-0dd9719b="" x="0" y="0" width="100%" height="100%" fill="#fff" fill-opacity="1" class="background"></rect> <rect data-v-0dd9719b="" x="0" y="0" width="100%" height="100%" fill="url(#watermark)" fill-opacity="1" class="watermarklayer"></rect> <g data-v-0dd9719b="" fill="#333" class="icon-text-wrapper icon-svg-group iconsvg" transform="translate(48.590003967285156,94.9867935180664)"><g class="iconsvg-imagesvg" transform="translate(0,0)"><g><rect fill="#333" fill-opacity="0" stroke-width="2" x="0" y="0" width="60" height="60.02641162111329" class="image-rect"></rect> <svg x="0" y="0" width="60" height="60.02641162111329" filtersec="colorsb183462802" class="image-svg-svg primary" style="overflow: visible;"><svg xmlns="http://www.w3.org/2000/svg" viewBox="0.00004303455352783203 -0.004009366035461426 204.2726287841797 204.36288452148438"><path d="M181.62 102.26c-.16-.65-.63-.92-1-1.27l-37.26-37.28c-6.2-6.2-12.42-12.37-18.57-18.61-1-1-1.45-.8-2.29.06-6.35 6.4-12.77 12.73-19.11 19.15-1 1.06-1.62 1-2.64 0Q85.47 48.9 70.08 33.61c-.82-.8-.84-1.22 0-2Q85.54 16.16 101 .66c.92-.92 1.46-.85 2.34 0q22.38 22.47 44.81 44.87 25.75 25.79 51.55 51.52c1.26 1.26 2.46 2.58 3.8 3.76 1.06.94 1 1.66 0 2.62-4.45 4.4-8.87 8.85-13.3 13.28l-30.47 30.45c-4.32 4.32-8.66 8.63-12.94 13-.9.92-1.5.86-2.35 0q-4.71-4.8-9.51-9.51c-.71-.7-.54-1.12.08-1.73q8.72-8.67 17.4-17.39l28.32-28.3c.36-.33.64-.68.89-.97z" fill="#1d9bfb"></path><path d="M58.54 43.39c.48 0 .68.33.92.57 3.29 3.27 6.54 6.57 9.86 9.8.87.85.16 1.25-.3 1.72q-5.93 6-11.88 11.9-16.86 16.85-33.74 33.69c-.86.85-.85 1.33 0 2.19q16.77 16.68 33.48 33.44 11.29 11.3 22.57 22.56c.84.84 1.33.84 2.19 0C88 152.78 94.46 146.4 100.83 140c.94-.95 1.49-1 2.45 0q15.38 15.41 30.84 30.73c.79.79.86 1.28 0 2.1q-15 14.92-29.92 29.91c-.29.29-.62.54-.88.85-.88 1.05-1.56 1-2.57 0q-16-16.1-32.05-32.1-33.87-34.01-67.83-67.9c-1.09-1.09-1.21-1.73-.05-2.88 8.74-8.62 17.41-17.3 26.1-26L57.3 44.39c.39-.39.7-.88 1.24-1z" fill="#87d80d"></path><path d="M138.34 102.07c-.15-.57-.64-.89-1-1.28L114 77.47c-1.42-1.42-1.41-1.41 0-2.86 2.78-2.76 5.62-5.47 8.29-8.34 1.14-1.22 1.82-1 2.81 0 4.9 4.92 9.75 9.73 14.6 14.62 6.62 6.62 13.21 13.27 19.88 19.84 1.13 1.11 1.06 1.74 0 2.81q-16.2 16.08-32.32 32.23c-.87.87-1.74 1.72-2.54 2.64-.65.75-1.2.79-1.9.08q-4.72-4.77-9.5-9.5c-.56-.56-.56-1 0-1.52q7.53-7.48 15-15l9.41-9.36a1.75 1.75 0 0 0 .61-1.04z" fill="#1d9bfb"></path><path d="M80.59 65.29a7.34 7.34 0 0 1 .79.59c3.18 3.16 6.32 6.35 9.53 9.48.86.84.15 1.23-.31 1.69q-6.09 6.11-12.2 12.2c-3.93 3.92-7.82 7.88-11.79 11.75-1 .91-.88 1.44 0 2.32 8 7.9 15.86 15.85 23.82 23.74.86.85 1.06 1.33.07 2.27-3 2.84-5.85 5.8-8.74 8.74-.82.85-1.46 1-2.39.07q-13.29-13.38-26.66-26.69c-2.73-2.73-5.46-5.48-8.23-8.17-.83-.8-.95-1.35-.06-2.23Q59 86.53 73.61 71.94L79.53 66a1.78 1.78 0 0 1 1.06-.71z" fill="#87d80d"></path><path d="M117.51 102.17a9 9 0 0 1-.68.85c-4.56 4.57-9.14 9.11-13.69 13.69-.72.74-1.28.81-2 .05Q94.42 110 87.65 103.3c-.91-.9-.83-1.52 0-2.37 3.67-3.58 7.3-7.21 10.93-10.83.87-.86 1.72-1.73 2.53-2.64.59-.65 1.1-.75 1.77-.07 4.66 4.68 9.35 9.34 14 14a8.14 8.14 0 0 1 .63.78z" fill="#87d80d"></path></svg></svg> <!----></g></g> <g transform="translate(67,1.9269561767578125)"><g data-gra="path-name" fill-rule="" class="tp-name iconsvg-namesvg" transform="translate(0,0)"><g transform="scale(1)"><g><path d="M4 4.37L4 4.37 1.21 3.42 3.78-4 3.78-32.53Q3.78-33.16 4.21-33.59 4.63-34.02 5.26-34.02L5.26-34.02 21.51-34.02 20.88-35.68 23.58-36.81 24.7-34.02 42.66-34.02 42.66-31.05 6.75-31.05 6.75-3.73Q6.75-3.6 6.73-3.49 6.71-3.38 6.66-3.24L6.66-3.24 4 4.37ZM55.13 4.32L55.13 4.32 52.34 3.28 56.07-6.88 56.07-36.27 59.04-36.27 59.04-6.61Q59.04-6.39 58.95-6.12L58.95-6.12 55.13 4.32ZM86.4-36.27L86.4 3.92 83.43 3.92 83.43-36.27 86.4-36.27ZM72.72-34.83L72.72 2.48 69.75 2.48 69.75-34.83 72.72-34.83ZM53.41-28.26L51.3-7.47 48.38-7.79 50.45-28.57 53.41-28.26ZM66.96-7.79L64.03-7.47 61.92-28.26 64.89-28.57 66.96-7.79ZM80.73-7.79L77.81-7.47 75.73-28.26 78.66-28.57 80.73-7.79ZM131.67-21.78L131.67-21.78 120.51-21.78 120.51-4.77 131.72-4.77 131.72-1.8 107.59-1.8Q106.97-1.8 106.54-2.23 106.11-2.65 106.11-3.28L106.11-3.28 106.11-28.93 109.08-28.93 109.08-4.77 117.54-4.77 117.54-32.58 105.25-32.09 105.12-35.05 131.81-36.13 131.94-33.21 120.51-32.71 120.51-24.75 131.67-24.75 131.67-21.78ZM132.66 3.6L132.66 3.6 104.08 3.6Q103.45 3.6 102.96 3.1L102.96 3.1 97.97-2.65 95.27 4.41 92.52 3.33 95.81-5.17 92.39-9.13 94.64-11.07 97.02-8.32 101.16-19.08 94.59-19.08Q93.69-19.08 93.28-19.84L93.28-19.84Q92.88-20.56 93.33-21.33L93.33-21.33 100.17-31.99 92.61-31.99 92.61-34.96 102.87-34.96Q103.72-34.96 104.17-34.2L104.17-34.2Q104.58-33.44 104.13-32.67L104.13-32.67 97.29-22 103.32-22Q104.13-22 104.53-21.38L104.53-21.38Q104.98-20.7 104.72-20.02L104.72-20.02 99.18-5.76 104.76 0.63 132.66 0.63 132.66 3.6ZM175.55 3.78L175.55 3.78 161.15 3.78 161.15 0.85 174.1 0.85 174.1-36.45 177.03-36.45 177.03 2.34Q177.03 2.97 176.6 3.38 176.18 3.78 175.55 3.78L175.55 3.78ZM157.95-17.32L156.65-14.67 150.57-17.55 150.57 3.92 147.6 3.92 147.6-26.28 143.32-26.28 140.85 2.83 137.88 2.56 140.35-26.28 137.34-26.28 137.34-29.2 147.6-29.2 147.6-32.89 137.75-32.53 137.61-35.5 157.95-36.27 158.04-33.34 150.57-33.03 150.57-29.2 158.31-29.2 158.31-26.28 150.57-26.28 150.57-20.88 157.95-17.32ZM164.07-35.41L164.07-2.52 161.1-2.52 161.1-35.41 164.07-35.41Z" transform="translate(-1.2100000381469727, 36.810001373291016)"></path></g> <!----> <!----> <!----> <!----> <!----> <!----> <!----></g></g> <g data-gra="path-slogan" fill-rule="" class="tp-slogan iconsvg-slogansvg" fill="#333" transform="translate(30.929443359375,47.220001220703125)"><!----> <!----> <g transform="scale(1, 1)"><g transform="scale(1)"><path d="M7.31-3.61L4.69-3.61L4.69-4.59L8.44-4.59L8.44 0L7.69 0L7.41-1.08Q6.42 0.09 4.59 0.14L4.59 0.14Q2.86 0.14 1.92-0.75L1.92-0.75Q0.52-2.06 0.56-4.36L0.56-4.36Q0.89-8.63 4.64-8.81L4.64-8.81Q7.83-8.63 8.30-6L8.30-6L7.17-6Q6.70-7.78 4.59-7.83L4.59-7.83Q1.92-7.64 1.78-4.31L1.78-4.31Q1.78-0.75 4.64-0.75L4.64-0.75Q5.67-0.75 6.42-1.31L6.42-1.31Q7.36-2.06 7.31-3.61L7.31-3.61ZM15.89-3.19L15.89-8.58L17.06-8.58L17.06-3.05Q16.92 0.05 13.55 0.14L13.55 0.14Q10.41 0.05 10.27-2.86L10.27-2.86L10.27-8.58L11.44-8.58L11.44-3.19Q11.48-0.84 13.59-0.80L13.59-0.80Q15.89-0.84 15.89-3.19L15.89-3.19ZM24.52 0L23.67-2.48L20.20-2.48L19.31 0L18.14 0L21.38-8.58L22.69-8.58L25.78 0L24.52 0ZM21.94-7.31L20.58-3.52L23.25-3.52L21.98-7.31L21.94-7.31ZM28.22-8.58L32.53-1.64L32.53-8.58L33.66-8.58L33.66 0L32.34 0L27.98-6.94L27.94-6.94L27.94 0L26.81 0L26.81-8.58L28.22-8.58ZM41.86-3.61L39.23-3.61L39.23-4.59L42.98-4.59L42.98 0L42.23 0L41.95-1.08Q40.97 0.09 39.14 0.14L39.14 0.14Q37.41 0.14 36.47-0.75L36.47-0.75Q35.06-2.06 35.11-4.36L35.11-4.36Q35.44-8.63 39.19-8.81L39.19-8.81Q42.38-8.63 42.84-6L42.84-6L41.72-6Q41.25-7.78 39.14-7.83L39.14-7.83Q36.47-7.64 36.33-4.31L36.33-4.31Q36.33-0.75 39.19-0.75L39.19-0.75Q40.22-0.75 40.97-1.31L40.97-1.31Q41.91-2.06 41.86-3.61L41.86-3.61ZM45.61-1.03L50.91-1.03L50.91 0L44.16 0L44.16-0.94L49.41-7.59L44.53-7.59L44.53-8.58L50.91-8.58L50.91-7.59L45.61-1.03ZM53.20-5.06L57.70-5.06L57.70-8.58L58.88-8.58L58.88 0L57.70 0L57.70-3.98L53.20-3.98L53.20 0L52.03 0L52.03-8.58L53.20-8.58L53.20-5.06ZM67.45-4.27L67.45-4.27Q67.27-7.64 64.45-7.83L64.45-7.83Q61.59-7.69 61.45-4.27L61.45-4.27Q61.59-0.94 64.45-0.80L64.45-0.80Q67.27-0.98 67.45-4.27ZM68.63-4.27L68.63-4.27Q68.34 0 64.45 0.14L64.45 0.14Q60.52 0 60.23-4.27L60.23-4.27Q60.47-8.72 64.45-8.81L64.45-8.81Q68.34-8.67 68.63-4.27ZM75.66-3.19L75.66-8.58L76.83-8.58L76.83-3.05Q76.69 0.05 73.31 0.14L73.31 0.14Q70.17 0.05 70.03-2.86L70.03-2.86L70.03-8.58L71.20-8.58L71.20-3.19Q71.25-0.84 73.36-0.80L73.36-0.80Q75.66-0.84 75.66-3.19L75.66-3.19ZM88.88-8.58L85.64-3.47L85.64 0L84.47 0L84.47-3.47L81.23-8.58L82.59-8.58L85.03-4.45L87.52-8.58L88.88-8.58ZM95.58 0L94.73-2.48L91.27-2.48L90.38 0L89.20 0L92.44-8.58L93.75-8.58L96.84 0L95.58 0ZM93-7.31L91.64-3.52L94.31-3.52L93.05-7.31L93-7.31ZM99.28-8.58L103.59-1.64L103.59-8.58L104.72-8.58L104.72 0L103.41 0L99.05-6.94L99-6.94L99 0L97.88 0L97.88-8.58L99.28-8.58ZM106.50-8.58L107.67-8.58L107.67-1.03L112.03-1.03L112.03 0L106.50 0L106.50-8.58ZM113.34-8.58L114.52-8.58L114.52 0L113.34 0L113.34-8.58Z" transform="translate(-0.5609879032258065, 8.8125)"></path></g></g></g></g></g><defs v-gra="od"></defs></svg>