<svg data-v-0dd9719b="" version="1.0" xmlns="http://www.w3.org/2000/svg" xmlns:xlink="http://www.w3.org/1999/xlink" width="100%" height="100%" viewBox="0 0 340.000000 250.000000" preserveAspectRatio="xMidYMid meet" color-interpolation-filters="sRGB" style="margin: auto;"> <rect data-v-0dd9719b="" x="0" y="0" width="100%" height="100%" fill="#fff" fill-opacity="1" class="background"></rect> <rect data-v-0dd9719b="" x="0" y="0" width="100%" height="100%" fill="url(#watermark)" fill-opacity="1" class="watermarklayer"></rect> <g data-v-0dd9719b="" fill="#333" class="icon-text-wrapper icon-svg-group iconsvg" transform="translate(79.95000457763672,67.13369750976562)"><g class="iconsvg-imagesvg" transform="translate(60.04999542236328,0)"><g><rect fill="#333" fill-opacity="0" stroke-width="2" x="0" y="0" width="60" height="59.98260504453709" class="image-rect"></rect> <svg x="0" y="0" width="60" height="59.98260504453709" filtersec="colorsb7725342079" class="image-svg-svg primary" style="overflow: visible;"><svg xmlns="http://www.w3.org/2000/svg" viewBox="0 0 64.01882934570312 64"><title>资源 201</title><path d="M41.54 0v63.76H22.22V61.9v-46c0-2.88 1-5.13 3.39-6.58C30.78 6.19 36.05 3.19 41.54 0z" fill="#fcb041"></path><path d="M19.23 44.86H0V1.21c.57.32 1 .55 1.45.8 4.46 2.57 8.91 5.15 13.38 7.7a7.91 7.91 0 0 1 4.45 7.64c-.16 8.56-.05 17.12-.05 25.68z" fill="#e12a56"></path><path d="M44.7 64V26.65c.48.23.86.4 1.21.6 4.56 2.62 9.1 5.26 13.67 7.85A7.89 7.89 0 0 1 64 42.74c-.13 6.45 0 12.89 0 19.34V64z" fill="#1dac92"></path></svg></svg> <!----></g></g> <g transform="translate(0,66.98260498046875)"><g data-gra="path-name" fill-rule="" class="tp-name iconsvg-namesvg"><g transform="scale(1)"><g><path d="M1.08 11.51L1.08 11.51Q-1.63 11.51-4.06 10.99L-4.06 10.99-4.06 3.29Q-3.26 3.44-2.36 3.62-1.45 3.81-0.4 3.81L-0.4 3.81Q2.06 3.81 3.11 2.33 4.16 0.85 4.16-2.73L4.16-2.73 4.16-36.67 14.12-36.67 14.12-3.59Q14.12 3.86 10.86 7.69 7.6 11.51 1.08 11.51ZM56.36-18.38L56.36-18.38Q56.36-9.13 51.82-4.31 47.28 0.5 38.52 0.5L38.52 0.5Q29.9 0.5 25.29-4.34 20.69-9.18 20.69-18.43L20.69-18.43Q20.69-27.59 25.27-32.42 29.85-37.24 38.57-37.24L38.57-37.24Q47.33-37.24 51.84-32.45 56.36-27.66 56.36-18.38ZM31.12-18.38L31.12-18.38Q31.12-7.75 38.52-7.75L38.52-7.75Q42.29-7.75 44.1-10.33 45.92-12.92 45.92-18.38L45.92-18.38Q45.92-23.88 44.08-26.5 42.23-29.12 38.57-29.12L38.57-29.12Q31.12-29.12 31.12-18.38ZM69.8-36.67L76.07-23.07 82.39-36.67 93.12-36.67 81.06-14.32 81.06 0 71.08 0 71.08-14.02 59.01-36.67 69.8-36.67ZM107.04 0L97.09 0 97.09-36.67 107.04-36.67 107.04 0ZM138.94-11.14L138.94-11.14Q138.94-7.72 137.21-5.08 135.48-2.43 132.22-0.97 128.96 0.5 124.57 0.5L124.57 0.5Q120.91 0.5 118.43-0.01 115.95-0.53 113.26-1.81L113.26-1.81 113.26-10.63Q116.1-9.18 119.16-8.36 122.22-7.55 124.77-7.55L124.77-7.55Q126.98-7.55 128.01-8.31 129.04-9.08 129.04-10.28L129.04-10.28Q129.04-11.04 128.62-11.6 128.21-12.16 127.29-12.74 126.38-13.32 122.42-15.1L122.42-15.1Q118.83-16.73 117.04-18.26 115.24-19.79 114.38-21.77 113.51-23.75 113.51-26.46L113.51-26.46Q113.51-31.53 117.2-34.36 120.89-37.19 127.33-37.19L127.33-37.19Q133.02-37.19 138.94-34.56L138.94-34.56 135.91-26.91Q130.77-29.27 127.03-29.27L127.03-29.27Q125.1-29.27 124.22-28.59 123.34-27.91 123.34-26.91L123.34-26.91Q123.34-25.83 124.46-24.98 125.58-24.13 130.52-21.87L130.52-21.87Q135.26-19.74 137.1-17.29 138.94-14.85 138.94-11.14ZM176.04-36.67L176.04 0 166.08 0 166.08-14.95 154.57-14.95 154.57 0 144.61 0 144.61-36.67 154.57-36.67 154.57-23.07 166.08-23.07 166.08-36.67 176.04-36.67Z" transform="translate(4.059999942779541, 37.2400016784668)"></path></g> <!----> <!----> <!----> <!----> <!----> <!----> <!----></g></g> <!----></g></g><defs v-gra="od"></defs></svg>